<?xml version="1.0" standalone="no"?>
<!DOCTYPE svg PUBLIC "-//W3C//DTD SVG 20010904//EN"
 "http://www.w3.org/TR/2001/REC-SVG-20010904/DTD/svg10.dtd">
<svg version="1.0" xmlns="http://www.w3.org/2000/svg"
 width="512.000000pt" height="512.000000pt" viewBox="0 0 512.000000 512.000000"
 preserveAspectRatio="xMidYMid meet">
<metadata>
Created by potrace 1.11, written by Peter Selinger 2001-2013
</metadata>
<g transform="translate(0.000000,512.000000) scale(0.100000,-0.100000)"
fill="#000000" stroke="none">
<path d="M0 2560 l0 -2560 2560 0 2560 0 0 2560 0 2560 -2560 0 -2560 0 0
-2560z m3175 1635 c116 -18 263 -54 367 -91 63 -23 255 -108 265 -118 2 -1
-36 -86 -83 -187 -48 -101 -106 -226 -130 -277 l-43 -93 -33 17 c-55 28 -263
92 -360 111 -147 28 -468 25 -611 -5 -382 -80 -696 -296 -888 -608 -82 -134
-127 -258 -149 -406 -15 -97 -5 -225 31 -433 52 -293 25 -559 -74 -750 -58
-109 -161 -214 -240 -244 -62 -23 -87 -26 -87 -12 0 5 11 16 25 25 42 27 106
122 130 193 68 197 55 405 -45 718 -146 454 -141 825 14 1192 149 352 512 672
967 853 110 44 341 104 454 119 116 14 381 12 490 -4z m-150 -740 c50 -8 104
-19 120 -23 29 -8 28 -9 -20 -16 -121 -18 -214 -63 -276 -134 -36 -40 -86
-141 -95 -189 -4 -24 -12 -33 -25 -33 -18 0 -19 9 -19 123 0 67 3 159 7 205
l6 82 106 0 c58 0 147 -7 196 -15z m-403 -200 c-3 -215 3 -197 -66 -207 -19
-3 -28 30 -91 338 l-7 31 69 15 c37 9 75 16 83 17 13 1 15 -26 12 -194z m-249
117 c8 -11 98 -344 95 -347 -2 -2 -20 -10 -41 -19 l-37 -15 -83 162 c-45 89
-83 165 -85 168 -3 6 116 58 135 58 6 1 14 -2 16 -7z m-132 -250 l85 -159 -33
-22 -34 -22 -27 33 c-15 18 -43 51 -62 73 -33 38 -110 130 -138 166 -11 15 -5
22 45 53 31 20 62 36 68 36 5 0 49 -71 96 -158z m-264 14 c4 -7 33 -42 63 -77
134 -154 150 -172 149 -178 0 -3 -13 -16 -29 -29 l-29 -23 -136 106 c-74 59
-135 110 -135 114 0 13 85 101 98 101 6 0 15 -6 19 -14z m-32 -257 l134 -102
-20 -28 c-11 -16 -25 -29 -30 -29 -22 0 -289 141 -289 153 0 14 56 107 65 107
3 0 66 -46 140 -101z m1054 35 c125 -28 204 -60 297 -119 118 -76 246 -231
299 -364 151 -379 249 -569 362 -708 21 -26 29 -43 21 -43 -10 0 -293 48 -293
50 0 243 1 233 -33 303 -39 79 -76 118 -146 155 -46 24 -62 27 -151 27 -105 0
-140 -11 -217 -68 -40 -30 -42 -45 -7 -75 89 -77 212 -123 329 -124 l75 0 1
-192 c0 -247 33 -513 94 -770 11 -44 18 -81 16 -83 -28 -28 -677 342 -819 467
l-39 34 -121 -32 c-67 -17 -153 -41 -192 -52 -230 -66 -405 -103 -405 -85 0 5
10 58 21 119 27 141 22 278 -14 416 -66 249 -76 291 -82 365 -24 287 175 615
449 741 154 70 351 84 555 38z m-1157 -190 c79 -31 144 -57 146 -58 3 -3 -28
-66 -33 -66 -1 0 -45 9 -96 19 -52 10 -118 22 -146 26 -29 4 -55 10 -58 14 -6
11 26 121 36 121 4 0 72 -25 151 -56z m-44 -180 c82 -12 122 -21 122 -30 0
-25 -13 -44 -29 -44 -41 0 -114 -35 -160 -76 -36 -32 -56 -61 -76 -111 -15
-38 -31 -77 -36 -88 -11 -23 -4 317 7 352 4 17 12 22 28 18 11 -2 76 -12 144
-21z"/>
</g>
</svg>
